<svg width="30" height="22" viewBox="0 0 30 22" fill="none" xmlns="http://www.w3.org/2000/svg">
                                                            <path d="M25.4083 2.56088C22.9162 0.555449 18.9738 0.215503 18.805 0.203274C18.5434 0.181264 18.2939 0.328003 18.1863 0.570123C18.1765 0.584796 18.0909 0.782894 17.9955 1.09105C19.6439 1.36985 21.6689 1.92991 23.5007 3.06713C23.7942 3.24811 23.8847 3.63452 23.7037 3.928C23.5838 4.12121 23.3809 4.22637 23.1705 4.22637C23.058 4.22637 22.9431 4.19458 22.8404 4.13099C19.6904 2.17692 15.7578 2.07909 14.9996 2.07909C14.2415 2.07909 10.3064 2.17692 7.15885 4.13099C6.86537 4.31442 6.47896 4.22393 6.29798 3.93045C6.11456 3.63452 6.20504 3.25056 6.49852 3.06713C8.33032 1.93235 10.3553 1.36985 12.0037 1.09349C11.9083 0.782895 11.8227 0.587242 11.8154 0.570123C11.7053 0.328003 11.4583 0.176373 11.1942 0.203274C11.0254 0.215503 7.08303 0.555448 4.55668 2.58779C3.23847 3.80817 0.599609 10.9397 0.599609 17.1052C0.599609 17.2152 0.628957 17.3204 0.682762 17.4158C2.50233 20.6147 7.46945 21.4511 8.60178 21.4878C8.60668 21.4878 8.61401 21.4878 8.62135 21.4878C8.82189 21.4878 9.01021 21.3924 9.1276 21.231L10.2722 19.656C7.1833 18.8587 5.60586 17.5038 5.51537 17.4231C5.25613 17.1957 5.23167 16.7995 5.46157 16.5402C5.68901 16.281 6.08521 16.2565 6.34445 16.484C6.38113 16.5182 9.28657 18.9834 14.9996 18.9834C20.7224 18.9834 23.6279 16.5084 23.6572 16.484C23.9165 16.259 24.3102 16.281 24.5401 16.5427C24.7675 16.8019 24.7431 17.1957 24.4838 17.4231C24.3934 17.5038 22.8159 18.8587 19.7271 19.656L20.8716 21.231C20.989 21.3924 21.1773 21.4878 21.3779 21.4878C21.3852 21.4878 21.3925 21.4878 21.3974 21.4878C22.5298 21.4511 27.4969 20.6147 29.3165 17.4158C29.3703 17.3204 29.3996 17.2152 29.3996 17.1052C29.3996 10.9397 26.7607 3.80817 25.4083 2.56088ZM10.93 14.6008C9.71945 14.6008 8.73874 13.4807 8.73874 12.0965C8.73874 10.7122 9.71945 9.59213 10.93 9.59213C12.1406 9.59213 13.1213 10.7122 13.1213 12.0965C13.1213 13.4807 12.1406 14.6008 10.93 14.6008ZM19.0692 14.6008C17.8586 14.6008 16.8779 13.4807 16.8779 12.0965C16.8779 10.7122 17.8586 9.59213 19.0692 9.59213C20.2798 9.59213 21.2605 10.7122 21.2605 12.0965C21.2605 13.4807 20.2798 14.6008 19.0692 14.6008Z" fill="white"></path>
                                                        </svg>